<?xml version="1.0" standalone="no"?>
<!DOCTYPE svg PUBLIC "-//W3C//DTD SVG 20010904//EN"
 "http://www.w3.org/TR/2001/REC-SVG-20010904/DTD/svg10.dtd">
<svg version="1.0" xmlns="http://www.w3.org/2000/svg"
 width="16.000000pt" height="16.000000pt" viewBox="0 0 16.000000 16.000000"
 preserveAspectRatio="xMidYMid meet">

<g transform="translate(0.000000,16.000000) scale(0.100000,-0.100000)"
fill="#000000" stroke="none">
<path d="M32 127 c-27 -29 -28 -71 -2 -97 21 -21 65 -26 90 -10 11 7 0 10 -37
10 l-53 0 0 35 c0 20 5 35 11 35 7 0 17 7 24 17 8 11 17 13 26 7 8 -5 19 -9
24 -9 6 0 11 -17 13 -38 4 -42 22 -41 22 2 0 34 -37 71 -71 71 -14 0 -35 -10
-47 -23z"/>
</g>
</svg>
